<?xml version="1.0" encoding="utf-8"?>
<!-- Generator: Adobe Illustrator 23.1.1, SVG Export Plug-In . SVG Version: 6.00 Build 0)  -->
<svg version="1.1" id="Logo" xmlns="http://www.w3.org/2000/svg" xmlns:xlink="http://www.w3.org/1999/xlink" x="0px" y="0px"
	 viewBox="0 0 566.9 396.4" style="enable-background:new 0 0 566.9 396.4;" xml:space="preserve">
<path d="M68.7,83c1.3-0.5,2.4,0.5,2.4,2.2L70.4,185c0,1.7-1.1,3.4-2.4,3.9l-10.4,3.8c-1.3,0.5-2.4-0.5-2.4-2.2l0.4-60.5
	c0-1.4-0.2-1.7-0.6-1.6c-0.4,0.1-0.7,0.6-0.8,1.5l-11.9,65.8c-0.4,1.9-1.2,3-2.5,3.5l-9.3,3.4c-1.3,0.5-2.1,0-2.5-1.7l-11.2-57.4
	c-0.1-0.9-0.5-1-0.8-0.9c-0.4,0.1-0.6,0.7-0.6,2l-0.4,60.5c0,1.7-1.1,3.4-2.4,3.9l-10.4,3.8C1,213.3,0,212.3,0,210.6l0.6-99.9
	c0-1.7,1.1-3.4,2.4-3.9l17.3-6.3c1.3-0.5,2.1,0,2.5,1.7l11.6,63.9c0.2,1.1,0.5,1.5,0.9,1.3c0.6-0.2,0.8-0.8,1.1-2l12.5-72.6
	c0.4-1.9,1.2-3,2.5-3.5L68.7,83 M107,133.5l10.8-3.9c0.7-0.3,1.1-1,1-2L113.4,94c-0.1-0.9-0.2-1.3-0.6-1.1l-0.5,0.2
	c-0.4,0.1-0.5,0.6-0.6,1.6l-5.8,37.6C105.9,133.3,106.2,133.8,107,133.5 M120.8,64c1.1-0.4,1.9,0.1,2.2,1.5l19.9,90.9
	c0.3,1.6,0.4,2.1,0.4,2.9c0,1.4-0.8,2.6-2.4,3.1l-12.4,4.5c-1.1,0.4-1.9-0.1-2.2-1.5l-3.5-14.3c-0.3-1.2-0.7-2-1.8-1.6l-17.9,6.5
	c-1.1,0.4-1.4,1.3-1.8,2.9L98,175.7c-0.4,1.6-1.2,2.7-2.3,3.1l-12.4,4.5c-1.5,0.6-2.3-0.1-2.3-1.4c0-0.8,0.1-1.4,0.5-3.2l21.3-105.9
	c0.4-1.6,1.2-2.7,2.3-3.1L120.8,64 M174.2,129l7.8-2.8c5.3-1.9,8.7-5.8,10.4-11c1.6-5,1.8-15.9,1.8-25c0.1-9.1,0-19.9-1.5-23.7
	c-1.6-4.1-5-5.4-10.3-3.5l-7.8,2.8c-0.7,0.3-1.2,1-1.2,2l-0.4,60.2C173,128.8,173.5,129.2,174.2,129 M182.5,41.5
	c12.7-4.6,21.4,0.5,25.5,10.8c3,7.6,3.2,18,3.1,31.6s-0.4,24.1-3.5,34c-4.2,13.3-13,24.8-25.7,29.4l-23.1,8.4
	c-1.3,0.5-2.3-0.5-2.3-2.2l0.6-99.9c0-1.7,1.1-3.4,2.4-3.9L182.5,41.5 M296.3,0.1l-11.8,4.3c-1.3,0.5-2.4,2.2-2.4,3.9l-0.2,37.8
	c0,0.9-0.5,1.7-1.2,2L263,54.5c-0.7,0.3-1.2-0.2-1.2-1.1l0.2-37.8c0-1.7-1-2.6-2.4-2.2l-11.8,4.3c-1.3,0.5-2.4,2.2-2.4,3.9
	l-0.6,99.9c0,1.7,1,2.7,2.4,2.2l11.2-4.1c1.3-0.5,3-2.4,3-4.1l0.2-37.8c0-0.9,0.5-1.7,1.2-1.9l17.7-6.4c0.7-0.3,1.2,0.2,1.2,1.1
	l-0.2,37.8c0,1.7,1,2.7,2.3,2.2l11.8-4.3c1.3-0.5,2.4-2.2,2.4-3.9l0.6-99.9C298.6,0.6,297.6-0.4,296.3,0.1 M157.5,239.3l-11.8-4.3
	c-1.3-0.5-2.4,0.5-2.4,2.2l0.2,37.8c0,0.9-0.5,1.4-1.2,1.1l-17.7-6.4c-0.7-0.3-1.2-1-1.2-2l-0.2-37.8c0-1.7-1.1-3.4-2.4-3.9
	l-11.8-4.3c-1.3-0.5-2.3,0.5-2.3,2.2l0.6,99.8c0,1.7,1.1,3.4,2.4,3.9l11.2,4.1c1.3,0.5,2.9-0.3,2.9-2l-0.2-37.8
	c0-0.9,0.5-1.3,1.2-1.1l17.7,6.4c0.7,0.3,1.2,1,1.2,1.9l0.2,37.8c0,1.7,1.1,3.4,2.4,3.9l11.8,4.3c1.3,0.5,2.3-0.5,2.3-2.2l-0.6-99.8
	C159.8,241.6,158.8,239.8,157.5,239.3 M225,263.9l-42.8-15.6c-1.3-0.5-2.3,0.5-2.3,2.2l0.6,99.8c0,1.7,1.1,3.4,2.4,3.9l43.3,15.8
	c1.3,0.5,2.3-0.5,2.3-2.2l-0.1-15.1c0-1.7-1.1-3.4-2.4-3.9l-27.9-10.2c-0.7-0.3-1.2-1-1.2-1.9l-0.1-18.2c0-0.9,0.5-1.3,1.2-1.1
	l26.5,9.7c1.3,0.5,2.3-0.5,2.3-2.2l-0.1-15.1c0-1.7-1.1-3.4-2.4-3.9l-26.5-9.7c-0.7-0.3-1.2-1-1.2-2l-0.1-18.2
	c0-0.9,0.5-1.3,1.2-1.1l27.5,10c1.3,0.5,2.4-0.5,2.4-2.2l-0.1-15.1C227.4,266.2,226.3,264.4,225,263.9 M260.9,277l-11.8-4.3
	c-1.3-0.5-2.3,0.5-2.3,2.2l0.6,99.8c0,1.7,1.1,3.4,2.4,3.9l40.1,14.6c1.3,0.5,2.3-0.5,2.3-2.2l-0.1-15.1c0-1.7-1.1-3.4-2.4-3.9
	l-24.8-9c-0.7-0.3-1.2-1-1.2-1.9l-0.5-80.2C263.2,279.2,262.2,277.5,260.9,277 M330.5,285c-16.8,6.1-27.4,23.1-27.6,39.8
	c-0.1,15.9,6.1,24.8,20.9,24.4c15.2-0.4,17.3,2.3,17.2,9.4c0,6.5-4.7,12.6-11.7,15.1c-6.8,2.5-11.4-0.8-11.3-8.2l0-3
	c0-1.7-1-2.6-2.4-2.2l-12.5,4.5c-1.3,0.5-2.4,2.2-2.4,3.9l0,3c-0.1,19.7,11.5,28.9,28.4,22.7c17.3-6.3,28.9-23.6,29-43.6
	c0.1-16.2-5.8-24.4-21.6-24c-13.6,0.4-16.6-2.1-16.5-7.6c0-6.4,3.7-11.3,10.3-13.7c5.8-2.1,9.9,1.1,9.8,7.8l0,0.8
	c0,1.7,1,2.6,2.4,2.2l11.9-4.3c1.3-0.5,2.4-2.2,2.4-3.9l0-0.8C357,288.7,347.3,278.9,330.5,285 M388.2,265.7l-11.8,4.3
	c-1.3,0.5-2.4,2.2-2.4,3.9l-0.6,99.9c0,1.7,1,2.6,2.3,2.2l11.8-4.3c1.3-0.5,2.4-2.2,2.4-3.9l0.6-99.9
	C390.5,266.2,389.5,265.2,388.2,265.7 M461.3,239.1l-11.8,4.3c-1.3,0.5-2.4,2.2-2.4,3.9l-0.4,61.4c0,0.5-0.3,0.9-0.6,1
	c-0.2,0.1-0.4,0-0.5-0.4l-15.8-56.1c-0.3-1.2-1.2-2.3-2.9-1.7l-14,5.1c-1.3,0.5-2.4,2.2-2.4,3.9l-0.6,99.9c0,1.7,1,2.6,2.3,2.2
	l11.8-4.3c1.3-0.5,2.4-2.2,2.4-3.9l0.4-56.9c0-0.5,0.3-1,0.6-1.1c0.2-0.1,0.4,0,0.5,0.4l15.7,51.8c0.3,1.1,1.2,2.1,3.2,1.4l13.9-5.1
	c1.3-0.5,2.4-2.2,2.4-3.9l0.6-99.9C463.6,239.6,462.6,238.6,461.3,239.1 M534.4,212.5l-12.9,4.7c-1.8,0.6-2.2,1.6-2.6,2.5
	l-20.1,45.8c-0.4,0.7-0.6,1.1-0.8,1.2c-0.4,0.1-0.6-0.1-0.6-0.7l0.2-37.1c0-1.7-1-2.6-2.4-2.2l-11.7,4.2c-1.3,0.5-2.4,2.2-2.4,3.9
	l-0.6,99.9c0,1.7,1,2.6,2.3,2.2l11.7-4.2c1.3-0.5,2.4-2.2,2.4-3.9l0.3-40.4c0-0.6,0.2-1,0.6-1.1c0.4-0.1,0.7,0.4,1.1,1l19.1,33.5
	c0.7,1.1,1.3,1.9,3.1,1.3l12.7-4.6c1.9-0.7,2.9-2.6,3-4.4c0-1.2-0.2-1.9-0.7-2.6l-23.6-37.3c-0.5-0.7-0.7-1.4-0.7-2.3
	c0-0.7,0.2-1.6,0.7-2.7l23.9-51.9c0.4-0.7,0.5-1.5,0.5-2.3C536.9,213.1,535.9,211.9,534.4,212.5 M564.6,201.5l-11.8,4.3
	c-1.3,0.5-2.4,2.2-2.4,3.9l-0.6,99.9c0,1.7,1,2.6,2.3,2.2l11.8-4.3c1.3-0.5,2.4-2.2,2.4-3.9l0.6-99.9
	C566.9,202,565.9,201,564.6,201.5 M340.6,89.6c5.3,1.9,8.7,0.6,10.3-3.5c1.5-3.8,1.5-15.7,1.5-25.4c-0.1-9.7-0.3-21.7-1.8-26.6
	c-1.7-5.3-5.1-9.1-10.4-11s-8.7-0.6-10.3,3.5c-1.5,3.8-1.5,15.7-1.5,25.4c0.1,9.7,0.3,21.7,1.8,26.6
	C331.9,83.9,335.3,87.7,340.6,89.6 M340,1.7c12.7,4.6,21.5,16.1,25.7,29.4c3.1,9.9,3.4,21.3,3.5,35.7c0.1,14.4-0.1,25.6-3.1,33.3
	c-4.1,10.3-12.7,15.5-25.5,10.8c-12.7-4.6-21.5-16.1-25.7-29.4c-3.1-9.9-3.4-21.3-3.5-35.7c-0.1-14.4,0.1-25.6,3.1-33.3
	C318.6,2.2,327.3-2.9,340,1.7 M433.1,37.3l-11.9-4.3c-1.3-0.5-2.3,0.5-2.3,2.2l0.4,71.1c0,6.7-3.9,10.7-10.8,8.2
	c-6.6-2.4-10.6-9.3-10.7-16l-0.4-71.1c0-1.7-1.1-3.4-2.4-3.9l-11.9-4.3c-1.3-0.5-2.4,0.5-2.4,2.2l0.4,71.1
	c0.1,19.8,12.9,38.1,27.4,43.4c14.8,5.4,27.4-3.6,27.3-23.5l-0.4-71.1C435.5,39.5,434.4,37.7,433.1,37.3 M477.1,51.6
	c-16.7-6.1-27.3,3.2-27.2,19.9c0.1,15.9,6.4,29.4,21.3,39.8c15.2,10.7,17.4,14.9,17.4,22c0,6.5-4.5,9.2-11.6,6.6
	c-6.8-2.5-11.5-9.2-11.5-16.6l0-3c0-1.7-1.1-3.4-2.4-3.9l-12.5-4.5c-1.3-0.5-2.4,0.5-2.4,2.2l0,3c0.1,19.7,11.9,37.4,28.9,43.6
	c17.3,6.3,28.7-2.7,28.6-22.7c-0.1-16.2-6.2-28.8-22-39.9C470,88.6,467.1,83.9,467,78.4c0-6.4,3.6-8.7,10.2-6.3
	c5.8,2.1,9.9,8.3,10,15l0,0.7c0,1.7,1.1,3.4,2.4,3.9l11.9,4.3c1.3,0.5,2.3-0.5,2.3-2.2l0-0.7C503.7,74.6,493.8,57.7,477.1,51.6
	 M563.5,84.7l-42.8-15.6c-1.3-0.5-2.3,0.5-2.3,2.2l0.6,99.9c0,1.7,1.1,3.4,2.4,3.9l43.3,15.8c1.3,0.5,2.3-0.5,2.3-2.2l-0.1-15.1
	c0-1.7-1.1-3.4-2.4-3.9l-27.9-10.2c-0.7-0.3-1.2-1-1.2-2l-0.1-18.2c0-0.9,0.5-1.3,1.2-1.1l26.5,9.7c1.3,0.5,2.4-0.5,2.4-2.2
	l-0.1-15.1c0-1.7-1.1-3.4-2.4-3.9l-26.5-9.7c-0.7-0.3-1.2-1-1.2-1.9L534.9,97c0-0.9,0.5-1.3,1.2-1.1l27.5,10
	c1.3,0.5,2.3-0.5,2.3-2.2l-0.1-15.1C565.8,86.9,564.7,85.2,563.5,84.7"/>
</svg>
