<svg xmlns="http://www.w3.org/2000/svg" viewBox="0 0 1366 120" xml:space="preserve">
  <path d="M34.03 100.94h-16.6V18.08h16.6v8.15h132.82v-8.15h16.6v82.86h-16.6V59.51l-66.41 32.82-66.41-32.82zM345.68 18.08h-16.6v82.86h16.6v-8.15H478.5v8.15h16.6V18.08h-16.6v41.43l-66.41-32.82-66.41 32.82zM769.97 100.94h-16.6V18.08h16.6v8.15H885.5l32.66 28.91-32.66 28.92H769.97zM228.96 94.1c-3.36 2.86-6.6 4.88-9.72 6.06-3.11 1.18-6.45 1.77-10.02 1.77-5.89 0-10.41-1.44-13.58-4.32-3.16-2.88-4.74-6.55-4.74-11.03 0-2.62.6-5.02 1.79-7.19 1.19-2.17 2.76-3.91 4.69-5.22 1.93-1.31 4.11-2.3 6.54-2.98 1.78-.47 4.47-.92 8.07-1.36 7.33-.87 12.73-1.92 16.2-3.13.03-1.24.05-2.04.05-2.37 0-3.7-.86-6.31-2.57-7.82-2.32-2.05-5.77-3.08-10.35-3.08-4.27 0-7.43.75-9.46 2.25-2.04 1.5-3.54 4.15-4.52 7.95l-8.88-1.21c.81-3.8 2.14-6.87 3.99-9.21 1.85-2.34 4.52-4.14 8.02-5.4 3.5-1.26 7.55-1.89 12.16-1.89 4.57 0 8.29.54 11.15 1.61 2.86 1.08 4.96 2.43 6.31 4.06 1.34 1.63 2.29 3.69 2.83 6.18.3 1.55.45 4.34.45 8.38v12.11c0 8.45.19 13.79.58 16.02.39 2.24 1.15 4.38 2.3 6.44h-9.49c-.92-1.9-1.53-4.1-1.8-6.62zm-.75-20.29c-3.3 1.35-8.24 2.49-14.84 3.43-3.73.54-6.38 1.14-7.92 1.82-1.55.67-2.74 1.66-3.58 2.95-.84 1.3-1.26 2.73-1.26 4.32 0 2.42.92 4.44 2.75 6.06 1.83 1.61 4.52 2.42 8.05 2.42 3.5 0 6.61-.77 9.34-2.3 2.73-1.53 4.73-3.62 6.01-6.28.98-2.05 1.46-5.08 1.46-9.08v-3.34zM286.24 100.71v-6.76c-3.4 5.32-8.39 7.97-14.99 7.97-4.27 0-8.2-1.18-11.78-3.53-3.58-2.35-6.36-5.64-8.33-9.87-1.97-4.22-2.95-9.07-2.95-14.56 0-5.35.89-10.2 2.67-14.56 1.78-4.36 4.46-7.7 8.02-10.02 3.57-2.32 7.55-3.48 11.96-3.48 3.23 0 6.11.68 8.63 2.04 2.52 1.36 4.57 3.14 6.16 5.32V26.72h9.03v73.98h-8.42zm-28.71-26.75c0 6.86 1.45 11.99 4.34 15.39 2.89 3.4 6.31 5.1 10.24 5.1 3.97 0 7.34-1.62 10.12-4.87 2.78-3.25 4.16-8.2 4.16-14.86 0-7.33-1.41-12.72-4.24-16.15-2.83-3.43-6.31-5.15-10.45-5.15-4.04 0-7.41 1.65-10.12 4.95-2.7 3.29-4.05 8.49-4.05 15.59zM960.94 100.71v-7.87c-4.17 6.06-9.84 9.08-17.01 9.08-3.16 0-6.12-.61-8.86-1.82-2.74-1.21-4.78-2.73-6.11-4.57-1.33-1.83-2.26-4.08-2.8-6.74-.37-1.78-.56-4.61-.56-8.48v-33.2h9.08v29.72c0 4.74.18 7.94.56 9.59.57 2.39 1.78 4.26 3.63 5.63 1.85 1.36 4.14 2.04 6.86 2.04s5.28-.7 7.67-2.09c2.39-1.4 4.08-3.3 5.07-5.7.99-2.4 1.49-5.9 1.49-10.47V47.11h9.08v53.6h-8.1zM991.68 100.71h-8.43V26.72h9.08v26.39c3.84-4.81 8.73-7.22 14.69-7.22 3.3 0 6.42.66 9.36 1.99 2.94 1.33 5.37 3.2 7.27 5.6 1.9 2.41 3.39 5.31 4.47 8.71 1.08 3.4 1.61 7.03 1.61 10.9 0 9.18-2.27 16.28-6.81 21.3-4.54 5.01-9.99 7.52-16.35 7.52-6.33 0-11.29-2.64-14.89-7.92v6.72zm-.1-27.2c0 6.43.87 11.07 2.62 13.93 2.86 4.68 6.73 7.01 11.61 7.01 3.97 0 7.4-1.72 10.3-5.17 2.89-3.45 4.34-8.59 4.34-15.42 0-7-1.39-12.16-4.16-15.49-2.78-3.33-6.13-5-10.07-5-3.97 0-7.4 1.72-10.3 5.17-2.9 3.45-4.34 8.44-4.34 14.97zM1040.58 100.71V26.72h9.08v73.98h-9.08zM1063.79 37.17V26.72h9.08v10.45h-9.08zm0 63.54v-53.6h9.08v53.6h-9.08zM1121.68 81.08l8.93 1.16c-.98 6.16-3.47 10.98-7.49 14.46s-8.96 5.22-14.81 5.22c-7.34 0-13.23-2.4-17.69-7.19-4.46-4.79-6.69-11.66-6.69-20.61 0-5.79.96-10.85 2.88-15.19s4.84-7.6 8.76-9.77 8.18-3.26 12.79-3.26c5.82 0 10.58 1.47 14.28 4.42 3.7 2.94 6.07 7.12 7.12 12.54l-8.83 1.36c-.84-3.6-2.33-6.31-4.47-8.13s-4.72-2.73-7.75-2.73c-4.58 0-8.29 1.64-11.15 4.92-2.86 3.28-4.29 8.47-4.29 15.57 0 7.2 1.38 12.43 4.14 15.69s6.36 4.9 10.8 4.9c3.57 0 6.54-1.09 8.93-3.28 2.39-2.18 3.9-5.54 4.54-10.08zM1173.36 94.1c-3.36 2.86-6.6 4.88-9.72 6.06-3.11 1.18-6.45 1.77-10.02 1.77-5.89 0-10.41-1.44-13.58-4.32-3.16-2.88-4.74-6.55-4.74-11.03 0-2.62.6-5.02 1.79-7.19 1.19-2.17 2.76-3.91 4.69-5.22 1.93-1.31 4.11-2.3 6.54-2.98 1.78-.47 4.47-.92 8.07-1.36 7.33-.87 12.73-1.92 16.2-3.13.03-1.24.05-2.04.05-2.37 0-3.7-.86-6.31-2.57-7.82-2.32-2.05-5.77-3.08-10.35-3.08-4.27 0-7.43.75-9.46 2.25-2.04 1.5-3.54 4.15-4.52 7.95l-8.88-1.21c.81-3.8 2.14-6.87 3.99-9.21 1.85-2.34 4.52-4.14 8.02-5.4 3.5-1.26 7.55-1.89 12.16-1.89 4.57 0 8.29.54 11.15 1.61 2.86 1.08 4.96 2.43 6.31 4.06 1.34 1.63 2.29 3.69 2.83 6.18.3 1.55.45 4.34.45 8.38v12.11c0 8.45.19 13.79.58 16.02.39 2.24 1.15 4.38 2.3 6.44h-9.49c-.93-1.9-1.54-4.1-1.8-6.62zm-.76-20.29c-3.3 1.35-8.24 2.49-14.84 3.43-3.73.54-6.38 1.14-7.92 1.82-1.55.67-2.74 1.66-3.58 2.95-.84 1.3-1.26 2.73-1.26 4.32 0 2.42.92 4.44 2.75 6.06 1.83 1.61 4.52 2.42 8.05 2.42 3.5 0 6.61-.77 9.34-2.3 2.73-1.53 4.73-3.62 6.01-6.28.98-2.05 1.46-5.08 1.46-9.08v-3.34zM1215.7 92.58l1.31 8.02c-2.56.54-4.84.81-6.86.81-3.3 0-5.85-.52-7.67-1.56s-3.1-2.41-3.84-4.11c-.74-1.7-1.11-5.27-1.11-10.72V54.18h-6.66v-7.07h6.66V33.84l9.03-5.45v18.72h9.13v7.07h-9.13v31.34c0 2.59.16 4.26.48 5 .32.74.84 1.33 1.56 1.77.72.44 1.76.66 3.1.66 1.02-.02 2.35-.13 4-.37zM1224.63 37.17V26.72h9.08v10.45h-9.08zm0 63.54v-53.6h9.08v53.6h-9.08zM1244.16 73.91c0-9.92 2.76-17.28 8.28-22.05 4.61-3.97 10.23-5.95 16.86-5.95 7.37 0 13.39 2.41 18.07 7.24s7.01 11.5 7.01 20.01c0 6.9-1.03 12.32-3.1 16.27-2.07 3.95-5.08 7.02-9.03 9.21-3.95 2.19-8.27 3.28-12.95 3.28-7.5 0-13.57-2.4-18.19-7.22-4.64-4.81-6.95-11.74-6.95-20.79zm9.34 0c0 6.86 1.5 12 4.49 15.42s6.76 5.12 11.3 5.12c4.51 0 8.26-1.72 11.25-5.15 2.99-3.43 4.49-8.66 4.49-15.69 0-6.63-1.51-11.65-4.52-15.06s-6.76-5.12-11.23-5.12c-4.54 0-8.31 1.7-11.3 5.1-2.99 3.39-4.48 8.52-4.48 15.38zM1305.02 100.71v-53.6h8.18v7.62c3.94-5.89 9.62-8.83 17.06-8.83 3.23 0 6.2.58 8.91 1.74 2.71 1.16 4.74 2.68 6.08 4.57 1.34 1.88 2.29 4.12 2.83 6.71.34 1.68.5 4.63.5 8.83v32.95h-9.08V68.1c0-3.7-.35-6.47-1.06-8.3-.71-1.83-1.96-3.3-3.76-4.39-1.8-1.09-3.91-1.64-6.33-1.64-3.87 0-7.21 1.23-10.02 3.68-2.81 2.46-4.21 7.12-4.21 13.98v29.27h-9.1zM502.56 73.91c0-9.92 2.76-17.28 8.28-22.05 4.61-3.97 10.23-5.95 16.86-5.95 7.37 0 13.39 2.41 18.07 7.24s7.01 11.5 7.01 20.01c0 6.9-1.04 12.32-3.1 16.27-2.07 3.95-5.08 7.02-9.03 9.21-3.95 2.19-8.27 3.28-12.94 3.28-7.5 0-13.57-2.4-18.19-7.22-4.64-4.81-6.96-11.74-6.96-20.79zm9.34 0c0 6.86 1.5 12 4.49 15.42s6.76 5.12 11.3 5.12c4.51 0 8.26-1.72 11.25-5.15 2.99-3.43 4.49-8.66 4.49-15.69 0-6.63-1.51-11.65-4.52-15.06s-6.75-5.12-11.23-5.12c-4.54 0-8.31 1.7-11.3 5.1-2.98 3.39-4.48 8.52-4.48 15.38zM598.55 100.71v-7.87c-4.17 6.06-9.84 9.08-17.01 9.08-3.16 0-6.12-.61-8.86-1.82-2.74-1.21-4.78-2.73-6.11-4.57-1.33-1.83-2.26-4.08-2.8-6.74-.37-1.78-.56-4.61-.56-8.48v-33.2h9.08v29.72c0 4.74.18 7.94.56 9.59.57 2.39 1.78 4.26 3.63 5.63 1.85 1.36 4.14 2.04 6.86 2.04 2.73 0 5.28-.7 7.67-2.09 2.39-1.4 4.08-3.3 5.07-5.7.99-2.4 1.49-5.9 1.49-10.47V47.11h9.08v53.6h-8.1zM617.27 84.71l8.98-1.41c.5 3.6 1.91 6.36 4.21 8.28 2.3 1.92 5.53 2.88 9.66 2.88 4.17 0 7.27-.85 9.29-2.55 2.02-1.7 3.03-3.69 3.03-5.98 0-2.05-.89-3.67-2.67-4.84-1.25-.81-4.34-1.83-9.29-3.08-6.66-1.68-11.28-3.14-13.85-4.37-2.57-1.23-4.53-2.93-5.85-5.1-1.33-2.17-1.99-4.57-1.99-7.19 0-2.39.55-4.6 1.64-6.64 1.09-2.04 2.58-3.73 4.47-5.07 1.41-1.04 3.34-1.93 5.78-2.65 2.44-.72 5.05-1.09 7.85-1.09 4.21 0 7.9.61 11.08 1.82 3.18 1.21 5.53 2.85 7.04 4.92 1.51 2.07 2.56 4.84 3.13 8.3l-8.88 1.21c-.4-2.76-1.57-4.91-3.51-6.46-1.94-1.55-4.67-2.32-8.2-2.32-4.17 0-7.15.69-8.93 2.07-1.78 1.38-2.67 3-2.67 4.84 0 1.18.37 2.24 1.11 3.18.74.98 1.9 1.78 3.48 2.42.91.34 3.58 1.11 8.02 2.32 6.43 1.72 10.91 3.12 13.45 4.21 2.54 1.09 4.53 2.68 5.98 4.77 1.45 2.09 2.17 4.68 2.17 7.77 0 3.03-.88 5.88-2.65 8.55-1.77 2.67-4.31 4.74-7.65 6.21s-7.1 2.2-11.3 2.2c-6.96 0-12.27-1.45-15.92-4.34-3.67-2.89-6-7.17-7.01-12.86zM709.27 83.45l9.39 1.16c-1.48 5.48-4.22 9.74-8.23 12.77-4 3.03-9.12 4.54-15.34 4.54-7.84 0-14.06-2.41-18.65-7.24-4.59-4.83-6.89-11.6-6.89-20.31 0-9.02 2.32-16.01 6.96-20.99 4.64-4.98 10.66-7.47 18.07-7.47 7.17 0 13.02 2.44 17.56 7.32 4.54 4.88 6.81 11.74 6.81 20.59 0 .54-.02 1.35-.05 2.42h-39.97c.34 5.89 2 10.4 5 13.52 2.99 3.13 6.73 4.69 11.2 4.69 3.33 0 6.17-.87 8.53-2.62 2.37-1.75 4.23-4.55 5.61-8.38zm-29.82-14.69h29.93c-.4-4.51-1.55-7.89-3.43-10.14-2.89-3.5-6.65-5.25-11.25-5.25-4.17 0-7.68 1.4-10.52 4.19-2.86 2.79-4.43 6.53-4.73 11.2z"/>
</svg>
