<svg viewBox="0 0 120 1366" xmlns="http://www.w3.org/2000/svg" xml:space="preserve" fill-rule="evenodd" clip-rule="evenodd" stroke-linejoin="round" stroke-miterlimit="2">
  <path d="M100.94 1331.98v16.6H18.08v-16.6h8.15v-132.82h-8.15v-16.6h82.86v16.6H59.51l32.82 66.41-32.82 66.41h41.43Zm-82.86-311.65v16.6h82.86v-16.6h-8.15V887.51h8.15v-16.6H18.08v16.6h41.43l-32.82 66.41 32.82 66.41H18.08Zm82.86-424.29v16.6H18.08v-16.6h8.15V480.51l28.91-32.66 28.92 32.66v115.53h16.88Zm-6.84 541.01c2.86 3.36 4.88 6.6 6.06 9.72 1.18 3.11 1.77 6.45 1.77 10.02 0 5.89-1.44 10.41-4.32 13.58-2.88 3.16-6.55 4.74-11.03 4.74-2.62 0-5.02-.6-7.19-1.79-2.17-1.19-3.91-2.76-5.22-4.69-1.31-1.93-2.3-4.11-2.98-6.54-.47-1.78-.92-4.47-1.36-8.07-.87-7.33-1.92-12.73-3.13-16.2-1.24-.03-2.04-.05-2.37-.05-3.7 0-6.31.86-7.82 2.57-2.05 2.32-3.08 5.77-3.08 10.35 0 4.27.75 7.43 2.25 9.46 1.5 2.04 4.15 3.54 7.95 4.52l-1.21 8.88c-3.8-.81-6.87-2.14-9.21-3.99-2.34-1.85-4.14-4.52-5.4-8.02-1.26-3.5-1.89-7.55-1.89-12.16 0-4.57.54-8.29 1.61-11.15 1.08-2.86 2.43-4.96 4.06-6.31 1.63-1.34 3.69-2.29 6.18-2.83 1.55-.3 4.34-.45 8.38-.45h12.11c8.45 0 13.79-.19 16.02-.58 2.24-.39 4.38-1.15 6.44-2.3v9.49l-6.62 1.8Zm-20.29.75c1.35 3.3 2.49 8.24 3.43 14.84.54 3.73 1.14 6.38 1.82 7.92.67 1.55 1.66 2.74 2.95 3.58 1.3.84 2.73 1.26 4.32 1.26 2.42 0 4.44-.92 6.06-2.75 1.61-1.83 2.42-4.52 2.42-8.05 0-3.5-.77-6.61-2.3-9.34-1.53-2.73-3.62-4.73-6.28-6.01-2.05-.98-5.08-1.46-9.08-1.46h-3.34v.01Zm26.9-58.03h-6.76c5.32 3.4 7.97 8.39 7.97 14.99 0 4.27-1.18 8.2-3.53 11.78-2.35 3.58-5.64 6.36-9.87 8.33-4.22 1.97-9.07 2.95-14.56 2.95-5.35 0-10.2-.89-14.56-2.67-4.36-1.78-7.7-4.46-10.02-8.02-2.32-3.57-3.48-7.55-3.48-11.96 0-3.23.68-6.11 2.04-8.63 1.36-2.52 3.14-4.57 5.32-6.16H26.72v-9.03h73.98v8.42h.01Zm-26.75 28.71c6.86 0 11.99-1.45 15.39-4.34 3.4-2.89 5.1-6.31 5.1-10.24 0-3.97-1.62-7.34-4.87-10.12-3.25-2.78-8.2-4.16-14.86-4.16-7.33 0-12.72 1.41-16.15 4.24-3.43 2.83-5.15 6.31-5.15 10.45 0 4.04 1.65 7.41 4.95 10.12 3.29 2.7 8.49 4.05 15.59 4.05Zm26.75-703.41h-7.87c6.06 4.17 9.08 9.84 9.08 17.01 0 3.16-.61 6.12-1.82 8.86-1.21 2.74-2.73 4.78-4.57 6.11-1.83 1.33-4.08 2.26-6.74 2.8-1.78.37-4.61.56-8.48.56h-33.2v-9.08h29.72c4.74 0 7.94-.18 9.59-.56 2.39-.57 4.26-1.78 5.63-3.63 1.36-1.85 2.04-4.14 2.04-6.86 0-2.72-.7-5.28-2.09-7.67-1.4-2.39-3.3-4.08-5.7-5.07-2.4-.99-5.9-1.49-10.47-1.49H47.11v-9.08h53.6v8.1Zm0-30.74v8.43H26.72v-9.08h26.39c-4.81-3.84-7.22-8.73-7.22-14.69 0-3.3.66-6.42 1.99-9.36 1.33-2.94 3.2-5.37 5.6-7.27 2.41-1.9 5.31-3.39 8.71-4.47 3.4-1.08 7.03-1.61 10.9-1.61 9.18 0 16.28 2.27 21.3 6.81 5.01 4.54 7.52 9.99 7.52 16.35 0 6.33-2.64 11.29-7.92 14.89h6.72Zm-27.2.1c6.43 0 11.07-.87 13.93-2.62 4.68-2.86 7.01-6.73 7.01-11.61 0-3.97-1.72-7.4-5.17-10.3-3.45-2.89-8.59-4.34-15.42-4.34-7 0-12.16 1.39-15.49 4.16-3.33 2.78-5 6.13-5 10.07 0 3.97 1.72 7.4 5.17 10.3 3.45 2.9 8.44 4.34 14.97 4.34Zm27.2-49H26.72v-9.08h73.98v9.08h.01Zm-63.54-23.21H26.72v-9.08h10.45v9.08Zm63.54 0h-53.6v-9.08h53.6v9.08Zm-19.63-57.89 1.16-8.93c6.16.98 10.98 3.47 14.46 7.49 3.48 4.02 5.22 8.96 5.22 14.81 0 7.34-2.4 13.23-7.19 17.69-4.79 4.46-11.66 6.69-20.61 6.69-5.79 0-10.85-.96-15.19-2.88s-7.6-4.84-9.77-8.76-3.26-8.18-3.26-12.79c0-5.82 1.47-10.58 4.42-14.28 2.94-3.7 7.12-6.07 12.54-7.12l1.36 8.83c-3.6.84-6.31 2.33-8.13 4.47-1.82 2.14-2.73 4.72-2.73 7.75 0 4.58 1.64 8.29 4.92 11.15 3.28 2.86 8.47 4.29 15.57 4.29 7.2 0 12.43-1.38 15.69-4.14s4.9-6.36 4.9-10.8c0-3.57-1.09-6.54-3.28-8.93-2.18-2.39-5.54-3.9-10.08-4.54Zm13.02-51.68c2.86 3.36 4.88 6.6 6.06 9.72 1.18 3.11 1.77 6.45 1.77 10.02 0 5.89-1.44 10.41-4.32 13.58-2.88 3.16-6.55 4.74-11.03 4.74-2.62 0-5.02-.6-7.19-1.79-2.17-1.19-3.91-2.76-5.22-4.69-1.31-1.93-2.3-4.11-2.98-6.54-.47-1.78-.92-4.47-1.36-8.07-.87-7.33-1.92-12.73-3.13-16.2-1.24-.03-2.04-.05-2.37-.05-3.7 0-6.31.86-7.82 2.57-2.05 2.32-3.08 5.77-3.08 10.35 0 4.27.75 7.43 2.25 9.46 1.5 2.04 4.15 3.54 7.95 4.52l-1.21 8.88c-3.8-.81-6.87-2.14-9.21-3.99-2.34-1.85-4.14-4.52-5.4-8.02-1.26-3.5-1.89-7.55-1.89-12.16 0-4.57.54-8.29 1.61-11.15 1.08-2.86 2.43-4.96 4.06-6.31 1.63-1.34 3.69-2.29 6.18-2.83 1.55-.3 4.34-.45 8.38-.45h12.11c8.45 0 13.79-.19 16.02-.58 2.24-.39 4.38-1.15 6.44-2.3v9.49c-1.9.93-4.1 1.54-6.62 1.8Zm-20.29.76c1.35 3.3 2.49 8.24 3.43 14.84.54 3.73 1.14 6.38 1.82 7.92.67 1.55 1.66 2.74 2.95 3.58 1.3.84 2.73 1.26 4.32 1.26 2.42 0 4.44-.92 6.06-2.75 1.61-1.83 2.42-4.52 2.42-8.05 0-3.5-.77-6.61-2.3-9.34-1.53-2.73-3.62-4.73-6.28-6.01-2.05-.98-5.08-1.46-9.08-1.46h-3.34v.01Zm18.77-43.1 8.02-1.31c.54 2.56.81 4.84.81 6.86 0 3.3-.52 5.85-1.56 7.67-1.04 1.82-2.41 3.1-4.11 3.84-1.7.74-5.27 1.11-10.72 1.11H54.18v6.66h-7.07v-6.66H33.84l-5.45-9.03h18.72v-9.13h7.07v9.13h31.34c2.59 0 4.26-.16 5-.48.74-.32 1.33-.84 1.77-1.56.44-.72.66-1.76.66-3.1-.02-1.02-.13-2.35-.37-4Zm-55.41-8.93H26.72v-9.08h10.45v9.08Zm63.54 0h-53.6v-9.08h53.6v9.08Zm-26.8-19.53c-9.92 0-17.28-2.76-22.05-8.28-3.97-4.61-5.95-10.23-5.95-16.86 0-7.37 2.41-13.39 7.24-18.07s11.5-7.01 20.01-7.01c6.9 0 12.32 1.03 16.27 3.1 3.95 2.07 7.02 5.08 9.21 9.03 2.19 3.95 3.28 8.27 3.28 12.95 0 7.5-2.4 13.57-7.22 18.19-4.81 4.64-11.74 6.95-20.79 6.95Zm0-9.34c6.86 0 12-1.5 15.42-4.49s5.12-6.76 5.12-11.3c0-4.51-1.72-8.26-5.15-11.25-3.43-2.99-8.66-4.49-15.69-4.49-6.63 0-11.65 1.51-15.06 4.52s-5.12 6.76-5.12 11.23c0 4.54 1.7 8.31 5.1 11.3 3.39 2.99 8.52 4.48 15.38 4.48Zm26.8-51.52h-53.6v-8.18h7.62c-5.89-3.94-8.83-9.62-8.83-17.06 0-3.23.58-6.2 1.74-8.91 1.16-2.71 2.68-4.74 4.57-6.08 1.88-1.34 4.12-2.29 6.71-2.83 1.68-.34 4.63-.5 8.83-.5h32.95v9.08H68.1c-3.7 0-6.47.35-8.3 1.06-1.83.71-3.3 1.96-4.39 3.76-1.09 1.8-1.64 3.91-1.64 6.33 0 3.87 1.23 7.21 3.68 10.02 2.46 2.81 7.12 4.21 13.98 4.21h29.27v9.1h.01Zm-26.8 802.46c-9.92 0-17.28-2.76-22.05-8.28-3.97-4.61-5.95-10.23-5.95-16.86 0-7.37 2.41-13.39 7.24-18.07s11.5-7.01 20.01-7.01c6.9 0 12.32 1.04 16.27 3.1 3.95 2.07 7.02 5.08 9.21 9.03 2.19 3.95 3.28 8.27 3.28 12.94 0 7.5-2.4 13.57-7.22 18.19-4.81 4.64-11.74 6.96-20.79 6.96Zm0-9.34c6.86 0 12-1.5 15.42-4.49s5.12-6.76 5.12-11.3c0-4.51-1.72-8.26-5.15-11.25-3.43-2.99-8.66-4.49-15.69-4.49-6.63 0-11.65 1.51-15.06 4.52s-5.12 6.75-5.12 11.23c0 4.54 1.7 8.31 5.1 11.3 3.39 2.98 8.52 4.48 15.38 4.48Zm26.8-86.65h-7.87c6.06 4.17 9.08 9.84 9.08 17.01 0 3.16-.61 6.12-1.82 8.86-1.21 2.74-2.73 4.78-4.57 6.11-1.83 1.33-4.08 2.26-6.74 2.8-1.78.37-4.61.56-8.48.56h-33.2v-9.08h29.72c4.74 0 7.94-.18 9.59-.56 2.39-.57 4.26-1.78 5.63-3.63 1.36-1.85 2.04-4.14 2.04-6.86 0-2.73-.7-5.28-2.09-7.67-1.4-2.39-3.3-4.08-5.7-5.07-2.4-.99-5.9-1.49-10.47-1.49H47.11v-9.08h53.6v8.1Zm-16-18.72-1.41-8.98c3.6-.5 6.36-1.91 8.28-4.21 1.92-2.3 2.88-5.53 2.88-9.66 0-4.17-.85-7.27-2.55-9.29-1.7-2.02-3.69-3.03-5.98-3.03-2.05 0-3.67.89-4.84 2.67-.81 1.25-1.83 4.34-3.08 9.29-1.68 6.66-3.14 11.28-4.37 13.85-1.23 2.57-2.93 4.53-5.1 5.85-2.17 1.33-4.57 1.99-7.19 1.99-2.39 0-4.6-.55-6.64-1.64a14.525 14.525 0 0 1-5.07-4.47c-1.04-1.41-1.93-3.34-2.65-5.78-.72-2.44-1.09-5.05-1.09-7.85 0-4.21.61-7.9 1.82-11.08 1.21-3.18 2.85-5.53 4.92-7.04 2.07-1.51 4.84-2.56 8.3-3.13l1.21 8.88c-2.76.4-4.91 1.57-6.46 3.51-1.55 1.94-2.32 4.67-2.32 8.2 0 4.17.69 7.15 2.07 8.93 1.38 1.78 3 2.67 4.84 2.67 1.18 0 2.24-.37 3.18-1.11.98-.74 1.78-1.9 2.42-3.48.34-.91 1.11-3.58 2.32-8.02 1.72-6.43 3.12-10.91 4.21-13.45 1.09-2.54 2.68-4.53 4.77-5.98 2.09-1.45 4.68-2.17 7.77-2.17 3.03 0 5.88.88 8.55 2.65 2.67 1.77 4.74 4.31 6.21 7.65 1.47 3.34 2.2 7.1 2.2 11.3 0 6.96-1.45 12.27-4.34 15.92-2.89 3.67-7.17 6-12.86 7.01Zm-1.26-92 1.16-9.39c5.48 1.48 9.74 4.22 12.77 8.23 3.03 4 4.54 9.12 4.54 15.34 0 7.84-2.41 14.06-7.24 18.65-4.83 4.59-11.6 6.89-20.31 6.89-9.02 0-16.01-2.32-20.99-6.96-4.98-4.64-7.47-10.66-7.47-18.07 0-7.17 2.44-13.02 7.32-17.56 4.88-4.54 11.74-6.81 20.59-6.81.54 0 1.35.02 2.42.05v39.97c5.89-.34 10.4-2 13.52-5 3.13-2.99 4.69-6.73 4.69-11.2 0-3.33-.87-6.17-2.62-8.53-1.75-2.37-4.55-4.23-8.38-5.61Zm-14.69 29.82v-29.93c-4.51.4-7.89 1.55-10.14 3.43-3.5 2.89-5.25 6.65-5.25 11.25 0 4.17 1.4 7.68 4.19 10.52 2.79 2.86 6.53 4.43 11.2 4.73Z" fill-rule="nonzero"/>
</svg>
